<?xml version="1.0" encoding="utf-8"?>
<!-- Generator: Adobe Illustrator 19.2.1, SVG Export Plug-In . SVG Version: 6.00 Build 0)  -->
<svg version="1.1" id="Layer_1" xmlns="http://www.w3.org/2000/svg" xmlns:xlink="http://www.w3.org/1999/xlink" x="0px" y="0px"
	 viewBox="0 0 227.1 216.6" style="enable-background:new 0 0 227.1 216.6;" xml:space="preserve">
<style type="text/css">
	.st0{fill:#F3441C;}
</style>
<g>
	<polygon class="st0" points="113.3,204.5 117.5,189.6 109.2,189.6 	"/>
	<path class="st0" d="M7.9,163c1.5,2.7,4.3,5.2,11.7,3.9c0.1,0,0.1,0,0.2,0v3.1c0,1.1,1.4,2,3.2,2s3.2-0.9,3.2-2v-4.9h9.9l0.4-10.8
		h7.7l-0.1,9.5c54.3,31.9,101.6,15.7,101.6,15.7v-12.1c-92.9,23.7-100.4-42-100.4-42V84.7c3-16.5,9.7-22.3,9.7-22.3v-4.9
		c-0.1-4.3-0.5-7.5-1-9.8c-5,1.7-9.6,4.3-9.6,4.3l-0.7,9.5h-7.5v-3.6v-4.4v-2.9H26v-4.9c0-1.2-1.4-2.1-3.2-2.1c-1.8,0-3.2,1-3.2,2.1
		v3c-4,0-10.1,0.7-11.9,4.7c-1.3,3-2.6,9.2,5,12.1l0,0c-0.1-0.6-1-9.2,6.5-8.8c4.3,0.3,7.6,0.9,11.5,10.6c0.2,0.6,1.3,3.6,1.3,7.9
		v16c0,2.8-0.9,4.5-1.6,5.5l-1,1l-9.8,9.9l10.6,10.8l0,0c0,0,1.8,1.8,1.8,6.2v19.1c0,0.9-0.1,1.7-0.2,2.5l0,0
		c-0.4,5.5-3.7,9.1-5.8,10.9c-0.6,0.6-1.2,1-1.8,1.3l0,0l0,0c-3.9,2.2-8.4,0.9-8.4,0.9c-2.6-0.4-3.2-3.1-3.3-5.1
		c0-1.2,0.1-2.4,0.1-2.4S3.3,154.9,7.9,163z"/>
	<path class="st0" d="M43.7,25.9c0.9,0.3,2.7,0.7,4.5-0.2c1.5-0.7,3.2-2,3.6-4.3l-1.2,0.8c-3.6,2.2-5.5,0.7-6.5-0.9l0,0
		C44,21.2,44,21.1,44,21.1c-0.1-0.1-0.1-0.2-0.2-0.4c-0.9-2.1,0.1-4.8,0.3-5.2c1.9-3.5,6.1-2.7,6.1-2.7c4.4,0.4,6.8,6.8,8.1,13.3
		c2.2,15.3,3,38.8,3.1,60.9c0,0.9,0,1.8,0,2.6c0,1.5-0.4,3.5-1.4,5.4l-5,8.8l5.1,7.8c0.3,0.5,1.1,2,1.3,4.4
		c-0.2,17.3-0.7,29.6-0.7,29.6c4.8,7.9,14.9,11.8,14.9,11.8c0.6-11.9,0.7-26.3,0.6-41l0,0c0-1.4,0.2-2.2,0.4-2.6l4.8-10.1l-4.5-5.2
		c-0.9-1-1.1-2.6-1.1-2.6c-0.8-30.3-2.3-58.8-2.9-69.6c0.7,2.7,3.1,9,9,4.5c0,0-2.9-3.7-2.8-9.3c0.1-3.2,1.6-5,2.4-5.7
		c2-1.6,4.6-3.2,7.7-3.5c0,0-2.7-7.5-8.5-7.2c0,0-6.3-0.1-8.9,4.6H67c-1.4-2-4.8-5.3-11.8-6.4l0,0c-4.4-0.6-7-0.1-7.8,0.1
		c-3.4,1-9.5,4-10.2,12.3C37.1,15.8,36.4,23.1,43.7,25.9z"/>
	<path class="st0" d="M79.4,46.1c18.7-6.9,51.4-3.3,51.4-3.3L135,34c-30.7-6-55.6,4.4-55.6,4.4V46.1z"/>
	<path class="st0" d="M88.5,193.2c-3.6,2.2-6.4,2.1-8.2,1.5c-0.8-0.1-1.5-0.6-2.1-1.1l0,0l0,0c-3.1-3-3.7-10.8-3.7-10.8
		c-3.5,0.2-13.9-3.7-13.9-3.7l-1,18.7c-0.2,1.3-0.5,2.9-1.3,4.1c-2.5,3.1-5.1,3.8-7.3,3.6l0,0c-8.4-0.7-6.8-8.9-6.8-8.9l0,0
		c0.4-6.4,7.8-5.8,7.8-5.8c0.5-3.7-2.3-5.5-4.6-6.3c-2.8-0.9-5.4-0.1-5.4-0.1l0,0c-5.6,2-6.6,7.2-6.7,10.3h-4.1
		c-1.3-6.7-7.3-9-11.6-9.8c-4.1-0.6-7,0.3-8,0.7c-0.1,0-0.2,0.1-0.3,0.1c-9,4-8.7,13.6-8.7,13.6c-0.6,7.6,2.5,10.7,4.8,12
		c0,0,2.2,1.1,6.4,0c3.9-1.5,4.6-4.8,4.6-4.8c-5.8,1.4-7.8-0.1-8.5-1.9c-0.1-0.3-1.2-3.1,0.1-6.1c0.2-0.6,0.5-1.2,0.9-1.6l0,0
		c0,0,0,0,0.1-0.1l0.1-0.1l0,0l0,0c0.4-0.5,0.9-0.8,1.5-1.1c1.4-0.8,3.5-1.6,6.2-1c0.2,0,0.4,0,0.4,0c0.9,0.2,1.9,0.7,3.1,1.4l0,0
		l0,0c2.9,1.8,6.4,4.9,8.8,7.2l0,0l0,0c0.3,0.3,0.6,0.6,0.9,0.9c1.5,1.4,4.5,4.3,6.6,5.9c0.9,0.5,1.8,1,2.7,1.4c0,0,8.2,5.1,15.5,2
		c1.4-0.5,3.9-1.6,6.5-4.3c0.2-0.2,0.3-0.3,0.5-0.5c0.1-0.1,0.1-0.1,0.2-0.2c0.6-0.7,1.2-1.5,1.7-2.2l0,0l0,0
		c1.6-2.6,2.2-4.8,2.2-4.8l0,0c1.3-3.4,1.7-6.8,1.7-8.6h3.1c2.3,9.1,9.3,8.6,9.3,8.6c9.5,0.2,8.5-9.5,8.5-9.5
		C89.9,192.3,89.2,192.8,88.5,193.2z"/>
	<path class="st0" d="M146.7,23.5c0,0-3.3,8.5-13.9,29.1l0,0c-0.6,1.3-2.6,4.5-9.4,7.7c0,0,3.9,7.3,3,11.9
		c-4.5,13.9-9.6,29.8-11.3,35.3l0,0c-0.1,0.2-0.1,0.5-0.2,0.7c-0.4,0.8-1,1-1.4,1.1c-0.2,0-0.4,0-0.6,0c-1.5,0-2-1.2-2.1-1.6
		C109,102,104,86.4,99.6,72.8c-0.9-4.6,3-11.9,3-11.9c-6.9-3.3-8.9-6.5-9.4-7.8c-0.1-0.2-0.1-0.4-0.2-0.6l0,0l0,0
		c-0.4-1.2-0.7-2-0.8-2.4c-5.6,0-8.8,1.3-10.6,2.5c-0.1,0.1-0.2,0.2-0.2,0.3C81.2,53,96,91.2,101.7,128.2h-0.1c0.2,1,0.3,2,0.5,2.9
		c0.1,0.5,0.1,1,0.2,1.5c0.7,5.7,0.5,9.2-0.2,11.3c-0.1,0.2-0.1,0.5-0.2,0.7v0.1c-0.6,1.3-1.5,1.9-1.9,2.1c-1.8,0.7-3.1,0.8-4,0.4
		l0,0c-0.1,0-0.1-0.1-0.2-0.1l0,0c-3.3-1.5-3.1-4.9-2.8-6.4c0-0.2,0.1-0.3,0.1-0.5v-0.1V140l0,0l0,0c0.6-1.7,2-3,2-3
		c-2.8-0.3-4.8,0.2-6.3,0.9c-0.6,0.3-3,1.7-3.9,4.8c-1.4,6.3,1.2,10.4,2.5,12l0,0c0,0,0.1,0.1,0.2,0.3c0.3,0.3,0.5,0.5,0.5,0.5
		c1.5,1.5,5.4,4.5,11.7,4.9l0,0c2.4,0.1,4.4-0.4,6.2-1.1c-0.2,1.5-0.8,3.7-2.5,7.1c0,0,3.7-1.6,3.8,1h4.8h1.2h4.8
		c0.1-2.6,3.8-1,3.8-1c-1.6-3.4-2.3-5.6-2.5-7.1c1.7,0.7,3.8,1.2,6.2,1.1l0,0c6.4-0.4,10.2-3.4,11.7-4.9c0.1,0,0.2-0.2,0.5-0.5
		c0.1-0.2,0.2-0.3,0.2-0.3l0,0c1.4-1.6,3.9-5.7,2.5-12c-0.9-3.1-3.3-4.5-3.9-4.8c-1.5-0.7-3.5-1.1-6.3-0.9c0,0,1.4,1.3,2,3l0,0l0,0
		v0.1v0.1c0.1,0.2,0.1,0.3,0.1,0.5c0.3,1.5,0.5,4.8-2.8,6.4l0,0c-0.1,0-0.1,0.1-0.2,0.1l0,0c-0.9,0.3-2.2,0.3-4-0.4
		c-0.4-0.2-1.3-0.8-1.9-2.1v-0.1c-0.1-0.2-0.2-0.4-0.2-0.7c-0.6-2.2-0.9-5.8-0.1-11.7l0,0c0.1-0.8,0.2-1.6,0.3-2.4
		c0.1-0.5,0.2-1,0.3-1.6l0,0c1.4-9.2,3.4-18.6,5.6-27.4l0,0c0,0,0,0,0-0.1c2.1-8.7,4.5-16.8,6.7-23.8c5.3-18.6,11.5-40.7,14.3-46.2
		h2.9v0.6c0,0.8-0.1,1.7-0.1,2.6c2.1,0.5,6.7,2.1,13.7,6c0.7-8.3,1.5-15.5,2.7-20.7c1.4-3.9,3.5-6.8,6.4-7c0,0,5.5-1,6.8,4.5
		c0.1,0.6,0.2,1.7-0.1,2.8c-0.7,1.8-2.6,4.8-7.1,2.1l-1.2-0.8c0.5,2.6,2.6,3.8,4.1,4.5c0.9,0.3,2.7,0.6,5.1-0.5
		c6.1-3,5.5-9.6,5.5-9.6c-0.6-7.2-5.2-10.4-8.7-11.8c-2.6-1-5.2-1-5.8-1c-9.5,0.4-13.7,4.5-15.3,6.7h-4.8c-2.6-4.7-8.9-4.6-8.9-4.6
		c-5.8-0.3-8.5,7.2-8.5,7.2S148.2,15.2,146.7,23.5z M113,152.4v-0.5v-0.3v0.4V152.4z"/>
	<path class="st0" d="M224.5,199.3c0,0,0.3-9.6-8.7-13.6c-0.1,0-0.2-0.1-0.3-0.1c-1-0.4-3.9-1.3-8-0.7c-4.3,0.8-10.3,3-11.6,9.8
		h-4.1c-0.1-3.1-1.1-8.3-6.7-10.3l0,0c0,0-2.6-0.9-5.4,0.1c-2.3,0.9-5.1,2.7-4.6,6.4c0,0,7.4-0.6,7.8,5.8l0,0c0,0,1.7,8.2-6.8,8.9
		l0,0c-2.2,0.2-4.7-0.5-7.3-3.6c-0.8-1.2-1.1-2.8-1.3-4.1l-0.1-2.6l0,0l0,0l-0.8-14.5l-0.2-6l0,0l-0.2-4.7l0,0l-0.5-15.6
		c-0.1,0-0.1,0.1-0.2,0.1c-0.1-3.2-0.1-6.6-0.2-10.3l0,0l0,0c-0.1-8.6-0.2-18.4-0.2-28.7c0.2-1.1,0.6-2.2,0.6-2.2l0,0l5.6-10.3
		c0,0-3.5-6.3-5.6-10.4l0,0c-0.4-0.8-0.5-2.2-0.5-2.3c0.1-6.1,0.2-12.1,0.4-18l0,0c0,0-7-8.4-13.1-13.4c-0.4,10.1-0.8,21.9-1.2,34.5
		l0,0c0,0-0.3,2-1,2.8l0,0l-6,7.4l5.7,9.5c0,0,0.7,1.5,0.7,2.9l0,0c-0.5,25.2-0.7,51.3,0.1,72.1l0,0c0,0,0,2.4-1.1,4.2
		c-0.3,0.5-0.6,0.9-1,1.2l0,0c0,0,0,0-0.1,0.1c-0.6,0.5-1.2,0.9-2,1.1c-1.8,0.6-4.6,0.8-8.1-1.5c-0.7-0.4-1.4-0.9-2-1.5
		c0,0-1,9.7,8.5,9.5c0,0,5.8,0.4,8.6-6.6h3.9c0.2,1.8,0.7,4.2,1.6,6.6l0,0c0,0,0.5,2.2,2.2,4.8l0,0l0,0c0.5,0.7,1,1.5,1.7,2.2
		l0.1,0.1c0.2,0.2,0.3,0.4,0.5,0.5c2.6,2.7,5.1,3.9,6.5,4.3c7.3,3.1,15.5-2,15.5-2c0.9-0.4,1.8-0.9,2.7-1.4c2.1-1.6,5.1-4.5,6.6-5.9
		c0.3-0.3,0.6-0.6,0.9-0.9l0,0l0,0c2.4-2.3,5.9-5.5,8.8-7.2l0,0l0,0c1.1-0.7,2.2-1.2,3.1-1.4c0,0,0.1,0,0.4,0c2.7-0.6,4.9,0.2,6.2,1
		c0.5,0.3,1.1,0.6,1.5,1.1l0,0l0,0l0.1,0.1c0.1,0.1,0.1,0.1,0.1,0.1l0,0c0.4,0.5,0.7,1,0.9,1.6c1.3,3.1,0.3,5.8,0.1,6.1
		c-0.7,1.8-2.7,3.3-8.5,1.9c0,0,0.8,3.3,4.6,4.8c4.2,1.1,6.4,0,6.4,0C222,210,225.1,206.9,224.5,199.3z"/>
	<path class="st0" d="M170.8,50.6c-0.1-0.1-9.9-7.6-17.5-10.7c-0.2,3.4-0.3,7.3-0.5,11.7c3.3,1.7,9.7,5.7,15.8,14.8
		c0,0.1,0.1,0.1,0.1,0.2c0.1,0.1,0.2,0.3,0.3,0.4c0.3,0.4,0.5,0.8,0.8,1.2l0,0l0,0c1.7,2.8,2.8,5.1,3,5.5c3.8,9.5,6.4,21.2,6.9,23.4
		c0.3,0,0.7-0.1,1-0.1c5.5,0,9.9,4.4,9.9,9.9s-4.4,9.9-9.9,9.9c-0.3,0-0.6,0-0.9,0c0,0.7,0,1.3,0,1.8l0,0c0,0-3.4,16.4-8.5,27.4
		v19.1c5.6-5.3,14.2-13.7,22.3-23.4v-5.9h4.7c4-5.2,7.6-10.6,10.4-15.9l0,0c0,0,0-0.1,0.1-0.2l0,0c0.3-0.6,1.1-1.9,2.5-2.4
		c0.9-0.2,1.9-0.4,3.1-0.4c0,0,6.1,0.4,4.3,7.2c0,0,2.8,0.1,3.7-3.9l0,0c1.2-5-0.6-7.4-0.6-7.4l0,0c-1.1-1.7-3.4-3.2-8.1-2.7
		c0.4-0.5,0.6-1.2,0.6-1.9c0-0.6-0.2-1.2-0.5-1.7c6.4,0.6,8.3-2.3,8.8-4.5l0,0l0,0l0,0c0.9-3.1,0.1-5.4-0.7-6.7
		c-0.3-0.5-0.6-0.9-0.9-1.2l-0.1-0.1l0,0c-1.1-1-2.2-1-2.2-1c1.8,6.5-4.3,6.9-4.3,6.9c-1,0-1.8-0.1-2.6-0.2
		c-1.8-0.4-2.4-1.8-2.4-1.8l0,0c-2.8-5.6-6.5-11.2-10.6-16.7h-5.3v-6.7C185.3,64.5,176.5,55.9,170.8,50.6z"/>
</g>
</svg>
